<?xml version="1.0" encoding="UTF-8" standalone="no"?>
<!-- Creator: CorelDRAW -->
<svg
   xmlns:dc="http://purl.org/dc/elements/1.1/"
   xmlns:cc="http://web.resource.org/cc/"
   xmlns:rdf="http://www.w3.org/1999/02/22-rdf-syntax-ns#"
   xmlns:svg="http://www.w3.org/2000/svg"
   xmlns="http://www.w3.org/2000/svg"
   xmlns:sodipodi="http://sodipodi.sourceforge.net/DTD/sodipodi-0.dtd"
   xmlns:inkscape="http://www.inkscape.org/namespaces/inkscape"
   xml:space="preserve"
   width="1834.8284"
   height="3208.5828"
   shape-rendering="geometricPrecision"
   text-rendering="geometricPrecision"
   image-rendering="optimizeQuality"
   fill-rule="evenodd"
   clip-rule="evenodd"
   viewBox="0 0 1850 3220"
   id="svg2"
   sodipodi:version="0.32"
   inkscape:version="0.44"
   sodipodi:docname="FI-LL.svg"
   sodipodi:docbase="C:\Documents and Settings\Anis.TITANIUM\Bureau"
   version="1.0"><metadata
   id="metadata846"><rdf:RDF><cc:Work
       rdf:about=""><dc:format>image/svg+xml</dc:format><dc:type
         rdf:resource="http://purl.org/dc/dcmitype/StillImage" /></cc:Work></rdf:RDF></metadata><defs
   id="defs844" /><sodipodi:namedview
   inkscape:window-height="727"
   inkscape:window-width="1024"
   inkscape:pageshadow="2"
   inkscape:pageopacity="0.0"
   guidetolerance="10.0"
   gridtolerance="10.0"
   objecttolerance="10.0"
   borderopacity="1.0"
   bordercolor="#666666"
   pagecolor="#ffffff"
   id="base"
   inkscape:zoom="0.16777316"
   inkscape:cx="647.69026"
   inkscape:cy="867.81229"
   inkscape:window-x="-4"
   inkscape:window-y="-4"
   inkscape:current-layer="Layer_x0020_1" />
 <g
   id="Layer_x0020_1"
   transform="translate(-90.77126,17.54695)">
  <metadata
   id="CorelCorpID_0Corel-Layer" />
  
  
  <polygon
   points="928.559,1420.71 927.958,1421.27 942.929,1406.08 964.203,1395.04 967.388,1380.28 1020.74,1383.33 1067.21,1354.06 1070.71,1384.04 1162.55,1391.99 1193.69,1381.38 1236.15,1312.2 1249.7,1318.37 1260,1313.49 1273.85,1347.87 1341.27,1358.53 1371.07,1345.51 1372.2,1326.49 1357.47,1304.29 1375.8,1295.42 1393.91,1300.56 1399.38,1296.11 1399.02,1279.32 1386.49,1270.19 1386.81,1252.85 1396.18,1251.39 1400.72,1220.12 1382.27,1212.36 1369.63,1185.16 1374.51,1166.83 1389.49,1160.9 1389,1144.27 1463.24,1161.68 1508.47,1155.87 1496.5,1123.82 1432.05,1014.99 1439.5,990.417 1537.59,806.454 1541.3,761.428 1495.17,726.91 1447.9,630.406 1375.62,601.001 1351.16,499.02 1379.95,447.124 1386.42,400.648 1378.29,386.874 1345.51,386.989 1399.42,341.632 1389.12,305.528 1392.61,271.816 1444.46,204.441 1415.17,129.751 1327.92,86.7586 1325.89,67.8067 1299.19,51.0078 1271.52,12.4702 1255.92,22.3021 1240.5,17.299 1229.81,32.8235 1187.06,66.7182 1137.7,53.8597 1109.32,63.8076 1092.01,105.02 1062.8,131.011 1048.43,154.046 1053.95,170.015 1044.56,187.115 1026.26,291.795 1029.96,353.948 1019.98,388.942 999.647,383.733 981.203,394.817 956.057,431.801 958.874,467.546 941.618,467.44 935.447,480.04 911.319,450.333 867.688,431.249 826.474,400.715 805.631,411.657 794.593,431.122 767.05,440.852 737.886,453.995 730.946,439.643 698.875,436.315 668.208,414.111 650.498,421.56 652.536,387.155 582.527,245.222 541.142,230.846 515.373,243.523 498.096,264.168 508.241,290.957 503.041,309.056 470.386,283.77 447.25,306.408 476.913,344.766 478.674,371.093 501.396,377.22 533.959,444.823 557.714,452.201 566.441,474.119 588.644,484.983 597.651,511.034 630.177,518.45 673.485,538.307 720.525,581.652 720.611,610.538 726.813,627.533 741.163,625.518 747.147,654.018 773.577,681.533 762.58,694.605 753.878,709.269 753.478,727.725 754.668,784.434 739.603,823.159 751.226,844.084 778.791,848.836 771.763,864.707 777.09,882.964 753.372,895.293 752.274,926.744 799.772,1036.51 782.274,1055.85 778.865,1112.05 761.176,1127.39 756.438,1142.85 750.448,1161.37 754.62,1178.11 750.019,1190.06 757.864,1228.99 778.033,1248.55 779.11,1269.15 795.893,1296.54 797.374,1316.29 807.523,1343.63 807.783,1365.6 818.861,1364.32 826.606,1351.98 836.284,1363.6 857.172,1371.33 863.695,1380.99 856.356,1396.39 861.645,1402.51 871.787,1395.89 875.725,1408.59 883.972,1407.75 890.955,1402.05 904.869,1404.12 913.155,1414.84 922.029,1414.02 928.559,1420.71 "
   id="polygon169"
   transform="translate(86.64426,-29.16675)"
   style="fill:#fcf5e3;stroke:#8c8c60;stroke-width:1.70079005" />
  <g
   id="_46812848"
   transform="translate(85.9027,-28.59574)"
   style="fill:#f4e2ba">
   <path
   style="fill:#f4e2ba;stroke:#8c8c60;stroke-width:1.70079005"
   d="M 1635.125,2554.0938 L 1546.5313,2601.6563 L 1540.9375,2617.5625 L 1516.9688,2625.6563 L 1498.1563,2656.875 L 1467.7188,2666.625 L 1437.5313,2665.2813 L 1432.75,2682.0938 L 1395.75,2682.3125 L 1381.6563,2671.5625 L 1374.1875,2690.125 L 1349.0625,2721.1875 L 1299.9375,2725.4688 L 1267.1563,2718.7188 L 1246.1875,2727.3125 L 1222.5625,2713.1563 L 1185,2712.9688 L 1181.3125,2719.9063 L 1166.1563,2718.625 L 1159.7188,2728.5 L 1178.375,2739.6563 L 1196.4063,2737.0313 L 1214.0625,2755.9375 L 1208.0313,2767.625 L 1214.9688,2781.75 L 1193.7188,2786.8438 L 1193.75,2786.875 L 1177.6875,2792.2813 L 1150,2778.5625 L 1149.9375,2752.0313 L 1129.9688,2751.5938 L 1129.7188,2767.0313 L 1114.7813,2774.75 L 1098.8438,2749.4688 L 1088.125,2753.8125 L 1086.9688,2738.3438 L 1078.4063,2737.125 L 1064.0938,2723.7188 L 1063.4063,2711.2188 L 1053.9688,2704.5313 L 1057.4063,2672.8438 L 1067.4063,2646.2188 L 1038.3438,2634.7188 L 1017.75,2602.9688 L 999.75,2593.9063 L 983.59375,2621.8438 L 971.28125,2615.9688 L 948.09375,2626.625 L 932.65625,2682.2188 L 856.28125,2689.4063 L 847.71875,2684.4375 L 849.875,2736.625 L 832.46875,2744.4375 L 820.78125,2732.75 L 815.40625,2744.9063 L 790.8125,2735.3438 L 765.03125,2756.6875 L 737.46875,2746.3125 L 750.15625,2767.6875 L 749.28125,2780.0625 L 681.0625,2805.9375 L 685.25,2838.0625 L 680.15625,2843.0313 L 659.84375,2820.8438 L 630.1875,2832.1563 L 615.84375,2832.375 L 613.59375,2822.4375 L 599.4375,2811.7188 L 589.25,2817.9688 L 589.03125,2826.1563 L 601.125,2833.375 L 593.03125,2852.2188 L 578.59375,2855.1563 L 577.21875,2868.9688 L 585.375,2878.5313 L 578.625,2884.5625 L 579.375,2896.375 L 604.5,2909.2813 L 623.5625,2899.7813 L 658.71875,2926.7813 L 689.90625,2937.0938 L 685.0625,2944.0313 L 690.53125,2953.375 L 679.5625,2977.9375 L 656.5625,2981.0938 L 655.25,2994.75 L 665.34375,2998.8438 L 668.5,3017.875 L 658.71875,3018.9063 L 655.8125,3038.5 L 641.03125,3043.5938 L 642.125,3077.4688 L 626.21875,3070.0313 L 597.84375,3084.125 L 588.3125,3076.5313 L 569.65625,3096.0625 L 544.875,3096.5313 L 540.75,3131.6563 L 531.75,3127.0313 L 520.625,3127.5 L 518.25,3139.1563 L 527.90625,3151.9063 L 545.46875,3154.9688 L 550.15625,3150.375 L 550.59375,3134.6875 L 556.15625,3130.2188 L 560.875,3137.5313 L 558.3125,3156.625 L 552.75,3163.3438 L 525.34375,3173 L 518.90625,3180.25 L 525.78125,3188.9063 L 546.3125,3180.375 L 571.15625,3180.5938 L 584,3169.625 L 584,3162.5 L 593.84375,3151.5938 L 605.8125,3153.125 L 613.53125,3158.625 L 629.375,3155.25 L 641.8125,3157.9375 L 648.21875,3153.0625 L 645.6875,3143.8125 L 663.625,3142.1875 L 700.03125,3126.5938 L 730,3125.9375 L 751.875,3113.8438 L 750.96875,3132.8438 L 755.65625,3132.875 L 762.53125,3126.9063 L 768.5,3130.3438 L 755.6875,3147.1875 L 765.09375,3147.9063 L 794.21875,3111.3125 L 794.1875,3101.5 L 796.3125,3096.4375 L 801.46875,3101.625 L 828.03125,3092.2813 L 838,3099.0938 L 852,3099.2813 L 856.71875,3091.7813 L 858.8125,3103.3438 L 869.53125,3094.2813 L 867.84375,3081.8438 L 878.5625,3085.1563 L 886.25,3074.75 L 888.46875,3067.8438 L 907.625,3062.5625 L 931.65625,3061.9375 L 937.75,3054.4375 L 938.09375,3041.2813 L 953.875,3039.5 L 957.8125,3054.0313 L 970.3125,3069.5625 L 975.28125,3070.5313 L 982.65625,3062.5938 L 990.78125,3067.6563 L 995,3062.2188 L 990.375,3047.4063 L 994.53125,3044.0313 L 1002.8125,3061.0938 L 1007.875,3059.0625 L 1006.9375,3046.6563 L 1011.8438,3044.9688 L 1019.375,3048.6875 L 1024.9063,3046.2813 L 1015.625,3029.8438 L 1013.0313,3019.4063 L 1003.5938,3006.6563 L 1004.9375,2998.625 L 1020.3438,3013.3438 L 1031.125,3024.4375 L 1036.2188,3035.8125 L 1042.2188,3035.3125 L 1047.375,3026.9375 L 1046.2813,3012.4375 L 1056.1563,3011.875 L 1061.3125,3023 L 1068.6875,3023.2813 L 1084.6563,3007.5625 L 1085.4375,3007.5625 L 1085.4375,3007.4063 L 1098.625,3007.5625 L 1105.2188,3003 L 1111.4063,3009.5313 L 1121.3438,3009.1875 L 1129.0938,3002.125 L 1142.375,3015.375 L 1153.9688,3015.75 L 1158.0625,3008.3438 L 1157.75,2989.9375 L 1169.1563,2978.4375 L 1197.375,2987.6875 L 1220.6563,2990.4063 L 1229.625,3003.7188 L 1236.625,2997.1563 L 1242.4375,2993.25 L 1248.75,2996.75 L 1258.4063,2995.3438 L 1266.375,2995.0938 L 1271.625,2986.5 L 1275.3438,2969.7813 L 1280.125,2966.125 L 1292.0625,2973.9688 L 1302.3438,2967.1875 L 1302.8125,2957.125 L 1318.5,2942.0313 L 1356.1875,2905.8125 L 1363.4688,2886.3438 L 1401.375,2853.1563 L 1421.625,2848.6563 L 1424,2827.5313 L 1442.8125,2795.2813 L 1458.5,2788.9063 L 1502.2813,2758.5313 L 1539.7188,2695.4063 L 1545.4063,2677.8125 L 1570.625,2659.9375 L 1590.6563,2617.9375 L 1620.4063,2590.5313 L 1632.25,2557.0313 L 1635.125,2554.0938 z "
   transform="matrix(1.008269,0,0,1.008269,7.1222,2.740807)"
   id="_78469904"
   sodipodi:nodetypes="cccccccccccccccccccccccccccccccccccccccccccccccccccccccccccccccccccccccccccccccccccccccccccccccccccccccccccccccccccccccccccccccccccccccccccccccccccccccccccccccccccccccccccccccccccccccccccccccccccccccccccccccccccccccccccccc" />
   <g
   id="g173"
   style="fill:#f4e2ba">
    
    <polygon
   id="_48860528"
   points="616.529,3206 611.001,3204.52 606.907,3201.75 612.346,3195.39 619.691,3196.9 629.193,3194.44 625.88,3202.06 621.483,3203.23 616.529,3206 "
   style="fill:#f4e2ba;stroke:#8c8c60;stroke-width:1.70079005" />
    <polygon
   id="_48917400"
   points="695.101,3182.24 686.775,3177.98 692.214,3168.17 699.167,3164.06 705.602,3164.06 708.747,3165.84 714.382,3165.77 703.94,3174.72 695.101,3182.24 "
   style="fill:#f4e2ba;stroke:#8c8c60;stroke-width:1.70079005" />
   </g>
   
   
   <g
   id="g180"
   style="fill:#f4e2ba">
    
    <polygon
   id="_78191856"
   points="1135.63,3064.37 1145.03,3056.57 1151.07,3066.14 1147.62,3071.91 1141.05,3068.08 1135.63,3064.37 "
   style="fill:#f4e2ba;stroke:#8c8c60;stroke-width:1.70079005" />
    <polygon
   id="_46724584"
   points="1106.27,3050.55 1116.97,3039.29 1124.74,3039.36 1126.9,3047.28 1113.85,3057.28 1106.27,3050.55 "
   style="fill:#f4e2ba;stroke:#8c8c60;stroke-width:1.70079005" />
    <polygon
   id="_48050200"
   points="1199.09,3083.81 1203.68,3079.3 1205.9,3079.47 1211.78,3084.98 1214.97,3087.31 1207.63,3091.78 1198.9,3091.41 1199.09,3083.81 "
   style="fill:#f4e2ba;stroke:#8c8c60;stroke-width:1.70079005" />
    <polygon
   id="_48217752"
   points="1183.55,3033.27 1190.79,3035.84 1190.79,3059.23 1184.75,3059.38 1179.47,3046.91 1183.55,3033.27 "
   style="fill:#f4e2ba;stroke:#8c8c60;stroke-width:1.70079005" />
   </g>
   <g
   id="g187"
   style="fill:#f4e2ba">
    
    <polygon
   id="_79302632"
   points="919.902,3105.83 917.613,3101.96 915.411,3099.48 920.206,3095.37 927.073,3095.37 930.123,3096.73 935.853,3097.08 933.413,3101.59 930.16,3105.16 919.902,3105.83 "
   style="fill:#f4e2ba;stroke:#8c8c60;stroke-width:1.70079005" />
    <polygon
   id="_48730688"
   points="945.243,3112.33 945.2,3102.93 951.289,3097.53 953.272,3114.98 946.997,3115.96 945.243,3112.33 "
   style="fill:#f4e2ba;stroke:#8c8c60;stroke-width:1.70079005" />
    <polygon
   id="_81315312"
   points="961.217,3097.21 960.741,3079.6 965.536,3078.08 967.638,3089.34 973.206,3095.95 972.996,3103.68 971.509,3105.3 971.404,3108.93 966.299,3114.24 961.675,3110.34 961.217,3097.21 "
   style="fill:#f4e2ba;stroke:#8c8c60;stroke-width:1.70079005" />
    <polygon
   id="_48938784"
   points="995.754,3108.44 997.006,3102.07 1002.73,3100.5 1006.12,3097.53 1012.92,3102.86 1015.44,3108.07 1009.04,3114.68 996.213,3112.94 995.754,3108.44 "
   style="fill:#f4e2ba;stroke:#8c8c60;stroke-width:1.70079005" />
    <polygon
   id="_79086592"
   points="1032.88,3087.27 1045.84,3080.68 1048.32,3091.63 1039.26,3093.51 1032.88,3087.27 "
   style="fill:#f4e2ba;stroke:#8c8c60;stroke-width:1.70079005" />
    <polygon
   id="_78396512"
   points="1051.01,3074.74 1053.08,3067.81 1060.08,3067.72 1064.73,3078.24 1058.69,3081.41 1052.12,3077.59 1051.01,3074.74 "
   style="fill:#f4e2ba;stroke:#8c8c60;stroke-width:1.70079005" />
    <polygon
   id="_48938696"
   points="1087.28,3059.62 1091.5,3053.98 1107.04,3061.82 1106.61,3068.88 1091.4,3066.36 1087.28,3059.62 "
   style="fill:#f4e2ba;stroke:#8c8c60;stroke-width:1.70079005" />
   </g>
  </g>
  <g
   id="_80189056"
   transform="translate(86.62926,-27.84453)"
   style="fill:#f4e2ba">
   <path
   style="fill:#f4e2ba;stroke:#8c8c60;stroke-width:1.70079005"
   d="M 711.90625,1840.3125 L 702.3125,1854.9375 L 701.125,1878.2188 L 691.71875,1879.875 L 679.96875,1868.6563 L 672.0625,1874.3125 L 671,1919.6875 L 623.59375,1921.8438 L 617.78125,1930.3125 L 611.25,1930.4375 L 605.34375,1923.3125 L 592.40625,1923.25 C 592.07958,1923.7385 591.9821,1923.293 591.65625,1923.7813 L 591.78125,1924.125 L 582.75,1937.6563 L 572.96875,1944.125 L 575.6875,1960.0938 L 574.15625,1971.7813 L 562.1875,1979.4375 L 560.375,1988.0313 L 553.75,1990.875 L 544.25,1999.0625 L 543.25,2003.875 L 534.375,2010.375 L 530.625,2026.75 L 524.125,2018.2188 L 517.375,2021.9375 L 512.4375,2043.2188 L 504.90625,2043.6563 L 501,2048.8438 L 503.375,2056.5313 L 508.8125,2062.0313 L 520.78125,2088.9063 L 516.40625,2099.5313 L 505.4375,2099.75 L 497.40625,2115 L 484.5625,2118.0313 L 450.28125,2105.7188 L 425.875,2116 L 414.5,2116.25 L 409.71875,2101.9063 L 401.75,2110 L 401,2131.5 L 392.6875,2141.8438 L 393.90625,2149.625 L 403.71875,2158.1563 L 406.8125,2165.8438 L 401.71875,2167.8125 L 392.65625,2165.4063 L 386.375,2167.4375 L 376.53125,2160.9063 L 371.90625,2168.375 L 382.28125,2176.2813 L 386.71875,2185.8125 L 385.65625,2197.4375 L 375.28125,2207.3125 L 376.5625,2217.5938 L 372.34375,2221.9375 L 361.1875,2223.1875 L 360.46875,2217.75 L 349.625,2221.4688 L 346.65625,2239.4063 L 341,2245.4375 L 329.8125,2244.8438 L 328.625,2249.625 L 335.28125,2257.1875 L 334.3125,2265.8125 L 327.96875,2271.5313 L 323.125,2277.25 L 319.90625,2297.625 L 323.71875,2302.1875 L 330.4375,2296.5313 L 335.5625,2300.375 L 336.5625,2306.8125 L 326.78125,2322.8125 L 324.59375,2341.3125 L 329.1875,2346.1563 L 323.25,2369.7813 L 329.625,2379.6875 L 351.125,2380.75 L 350.5,2387.7813 L 340.40625,2401.2188 L 340.4375,2412.4063 L 355.21875,2418.1875 L 356.78125,2426.1875 L 345,2438.7813 L 345.46875,2449.9063 L 337.8125,2462.4375 L 330.65625,2489.5938 L 338.4375,2502.5 L 339.0625,2504.875 L 341.125,2512.4375 L 349.96875,2517.875 L 353.625,2541.25 L 359.59375,2545.9063 L 359.09375,2550.5313 L 351.3125,2551.3438 L 348.65625,2557.25 L 361.9375,2574.4375 L 361.90625,2600.5 L 374.71875,2629.25 L 368.125,2629 L 359.3125,2618.9688 L 353.78125,2618.5625 L 350.8125,2624.1875 L 357.8125,2638.4063 L 364.34375,2643.6875 L 364.6875,2648.1563 L 352.875,2644.6563 L 345.375,2644.375 L 346.21875,2652.2188 L 357.375,2658.0938 L 360.96875,2666.9063 L 355.625,2667.875 L 348.65625,2665.1563 L 344,2666.6875 L 342.0625,2669.6563 L 352.25,2693.5313 L 347.5625,2717.7188 L 348.34375,2724.25 L 344.5625,2729.0625 L 337.09375,2724.0938 L 329.8125,2765.625 L 323.03125,2779.3125 L 322.90625,2779.1563 L 318.4375,2772.5313 L 310.25,2777.125 L 314.53125,2800.7188 L 325.375,2811.9688 L 323.125,2819.625 L 316.375,2814.25 L 309.96875,2801.4063 L 302.71875,2801.875 L 298.9375,2805.8438 L 305.375,2812.7188 L 304.90625,2820.4688 L 291.71875,2823.125 L 292.5625,2828.75 L 307.625,2837.875 L 306.0625,2842.875 L 302.875,2845.0625 L 301.0625,2850.4063 L 303.4375,2859.5 L 303.96875,2872.5 L 309.03125,2880.5 L 308.71875,2898.3438 L 319.59375,2926.875 L 333.78125,2939.3438 L 338.09375,2957.8125 L 349.125,2956.8438 L 354.0625,2935.5313 L 374.03125,2924.8125 L 380.75,2927.8125 L 373.9375,2945.4375 L 366.09375,2944.6875 L 358.90625,2954.8125 L 358.15625,2962.7188 L 374.625,2958.6875 L 395.71875,2958.0313 L 403.65625,2965.7188 L 403.28125,2973.5625 L 395.90625,2973.1875 L 392.71875,2977.1563 L 403.53125,2987 L 412.28125,2981.3438 L 415.75,2984.0625 L 414.09375,3004.875 L 422.03125,3005.375 L 431.875,3014.6875 L 469.21875,3007.5 L 474.78125,3002.6875 L 483.65625,3009.4688 L 469.0625,3032.7813 L 469.09375,3042.3438 L 484.65625,3041.9688 L 494.40625,3050.7813 L 517.125,3044.0938 L 552.28125,3016.9375 L 557.8125,3026.1563 L 549.40625,3036.4063 L 528.6875,3061.6563 L 532.65625,3082.5625 L 539.28125,3086.5625 L 548.34375,3092.0313 L 547.84375,3096.5313 L 572.59375,3096.0625 L 591.28125,3076.5313 L 600.8125,3084.125 L 629.1875,3070.0313 L 645.0625,3077.4688 L 643.96875,3043.5938 L 658.75,3038.5 L 661.6875,3018.9063 L 671.46875,3017.875 L 668.28125,2998.8438 L 658.21875,2994.75 L 659.53125,2981.0938 L 682.5,2977.9375 L 693.46875,2953.375 L 688.03125,2944.0313 L 692.84375,2937.0938 L 661.6875,2926.7813 L 626.5,2899.7813 L 607.46875,2909.2813 L 582.34375,2896.375 L 581.59375,2884.5625 L 588.34375,2878.5313 L 580.15625,2868.9688 L 581.5625,2855.1563 L 596,2852.2188 L 604.0625,2833.375 L 592,2826.1563 L 592.09375,2818.4688 L 592.1875,2817.9688 L 602.40625,2811.7188 L 616.53125,2822.4375 L 618.8125,2832.375 L 633.15625,2832.1563 L 662.8125,2820.8438 L 683.125,2843.0313 L 688.1875,2838.0625 L 684,2805.9375 L 752.21875,2780.0625 L 753.09375,2767.6875 L 740.4375,2746.3125 L 768,2756.6875 L 793.78125,2735.3438 L 818.375,2744.9063 L 823.75,2732.75 L 835.40625,2744.4375 L 852.84375,2736.625 L 850.65625,2684.4375 L 859.21875,2689.4063 L 935.59375,2682.2188 L 951.03125,2626.625 L 974.25,2615.9688 L 986.5625,2621.8438 L 1002.6875,2593.9063 L 1020.7188,2602.9688 L 1041.3125,2634.7188 L 1070.2813,2646.3125 L 1072.875,2639.3438 L 1091.4063,2645.2813 L 1096.5938,2626.1563 L 1075.5625,2595.1563 L 1070.4688,2541.5625 L 1076.9063,2531.8438 L 1054.9375,2491.5313 L 1068.6563,2463.5313 L 1092.9063,2448.4688 L 1110.3438,2457.3438 L 1118.9375,2420.875 L 1133.5,2415.7188 L 1117.0625,2397.5625 L 1127.4688,2390.3438 L 1120.875,2382.7188 L 1110.125,2384.0938 L 1088.0313,2369.9375 L 1088,2361.5 L 1107.4063,2340.7188 L 1102.5625,2312.25 L 1084.9688,2285.3438 L 1072.7813,2288.3438 L 1031.375,2236.5938 L 1060.4688,2232.8125 L 1068.4063,2219.4063 L 1058.8438,2209.9375 L 1070.9375,2201.8438 L 1050.625,2173.9063 L 1047.1875,2121.3438 L 1036.8125,2106.9375 L 1043.6563,2081.3125 L 1013.0625,2081.5313 L 1004.2188,2062.8438 L 994.8125,2055 L 971.4375,2054.9375 L 925.15625,2023.1875 L 910.53125,2029.25 L 904.125,2069.1563 L 886.25,2071.1875 L 825.4375,1996.75 L 809.125,1947.6875 L 794.46875,1941.9375 L 789.53125,1921.1563 L 778.84375,1915.5938 L 769.5,1878.2813 L 711.90625,1840.3125 z M 342.4375,2593.0938 L 340.71875,2605.0625 L 335.625,2610.2188 L 342.46875,2617.5 L 345.34375,2617.5 L 352.375,2617.5313 L 357.03125,2612.3438 L 352.90625,2604.8125 L 347.28125,2594.4688 L 342.4375,2593.0938 z M 321.4375,2732.7813 L 318.15625,2736.4375 L 316.75,2739.1563 L 319.34375,2749.0313 L 320.96875,2748.9063 L 324.90625,2748.625 L 328.75,2743.4688 L 328.125,2740.5 L 327.25,2736.4375 L 321.4375,2732.7813 z "
   transform="matrix(1.008269,0,0,1.008269,4.142,2.740807)"
   id="_79182544"
   sodipodi:nodetypes="ccccccccccccccccccccccccccccccccccccccccccccccccccccccccccccccccccccccccccccccccccccccccccccccccccccccccccccccccccccccccccccccccccccccccccccccccccccccccccccccccccccccccccccccccccccccccccccccccccccccccccccccccccccccccccccccccccccccccccccccccccccccccccccccccccccccccccccccccccccccccccccccccccccccccccccccccccc" />
   
   <g
   id="g200"
   style="fill:#f4e2ba">
    <polygon
   id="_46733072"
   points="574.796,1964.89 573.604,1978.84 570.053,1982.51 567.457,1985.19 562.708,1975.69 566.392,1963.71 567.889,1958.84 574.796,1964.89 "
   style="fill:#f4e2ba;stroke:#8c8c60;stroke-width:1.70079005" />
    <polygon
   id="_46038216"
   points="458.665,2069.01 458.335,2077.34 453.787,2078.52 450.462,2079.38 445.713,2067.71 452.16,2065.87 454.779,2065.12 458.665,2069.01 "
   style="fill:#f4e2ba;stroke:#8c8c60;stroke-width:1.70079005" />
    <polygon
   id="_46038056"
   points="486.295,2091.91 491.864,2097.12 489.919,2100.38 488.496,2102.76 478.626,2103.26 473.948,2106.86 472.048,2108.32 467.299,2107.89 477.229,2091.91 486.295,2091.91 "
   style="fill:#f4e2ba;stroke:#8c8c60;stroke-width:1.70079005" />
    <polygon
   id="_48458760"
   points="505.722,2111.78 506.543,2121.75 503.35,2127.75 501.016,2132.14 487.692,2125.73 479.638,2125.95 476.365,2126.04 472.48,2117.4 485.431,2109.19 499.269,2115.05 505.722,2111.78 "
   style="fill:#f4e2ba;stroke:#8c8c60;stroke-width:1.70079005" />
    <polygon
   id="_48271264"
   points="431.898,2108.32 443.944,2118.72 442.746,2122.48 441.871,2125.23 434.591,2118.38 431.141,2125.97 429.74,2129.06 424.127,2127.76 424.127,2117.4 431.898,2108.32 "
   style="fill:#f4e2ba;stroke:#8c8c60;stroke-width:1.70079005" />
    <polygon
   id="_48271104"
   points="366.709,2080.67 372.279,2080.7 372.363,2086.25 372.424,2090.3 366.277,2099.68 360.445,2099.68 358.075,2099.68 361.528,2090.61 366.709,2080.67 "
   style="fill:#f4e2ba;stroke:#8c8c60;stroke-width:1.70079005" />
    <polygon
   id="_46092248"
   points="383.114,2089.31 390.411,2089.34 392.489,2094.14 394.01,2097.64 387.863,2105.73 380.495,2105.73 377.502,2105.73 372.753,2097.52 383.114,2089.31 "
   style="fill:#f4e2ba;stroke:#8c8c60;stroke-width:1.70079005" />
    <polygon
   id="_78260352"
   points="371.458,2110.48 371.634,2117.48 368.044,2120.93 365.42,2123.44 368.686,2129.13 375.902,2129.36 378.835,2129.46 382.736,2121.16 391.104,2123.44 397.908,2138.24 393.795,2148.94 382.57,2144.99 376.164,2155.01 367.243,2152.94 361.097,2147.21 354.189,2146.77 344.692,2110.48 351.167,2108.32 356.328,2114.13 365.362,2105.08 371.458,2110.48 "
   style="fill:#f4e2ba;stroke:#8c8c60;stroke-width:1.70079005" />
    <polygon
   id="_78276864"
   points="303.678,2195.59 310.112,2198.22 309.946,2202.51 309.825,2205.65 307.132,2211.15 302.834,2211.15 301.088,2211.15 297.634,2204.67 303.678,2195.59 "
   style="fill:#f4e2ba;stroke:#8c8c60;stroke-width:1.70079005" />
    <polygon
   id="_79002608"
   points="350.304,2196.46 357.083,2201.97 357.631,2206.29 358.032,2209.45 356.019,2218.61 351.955,2218.53 350.304,2218.49 344.692,2213.74 344.692,2199.91 350.304,2196.46 "
   style="fill:#f4e2ba;stroke:#8c8c60;stroke-width:1.70079005" />
    <polygon
   id="_79684936"
   points="338.648,2247 347.671,2242.71 349.999,2247.76 351.701,2251.45 345.987,2255.64 342.303,2258.72 340.806,2259.96 333.467,2255.64 338.648,2247 "
   style="fill:#f4e2ba;stroke:#8c8c60;stroke-width:1.70079005" />
    <polygon
   id="_48923416"
   points="324.833,2278.54 328.676,2277.71 332.001,2284.5 334.433,2289.47 332.603,2292.37 327.999,2292.67 326.128,2292.8 323.969,2288.48 324.833,2278.54 "
   style="fill:#f4e2ba;stroke:#8c8c60;stroke-width:1.70079005" />
    <polygon
   id="_47381128"
   points="323.063,2333.87 329.684,2341.31 329.874,2343.73 330.013,2345.51 323.106,2349.4 319.422,2345.71 317.925,2344.21 320.043,2338.14 323.063,2333.87 "
   style="fill:#f4e2ba;stroke:#8c8c60;stroke-width:1.70079005" />
    
   </g>
   
   
   <g
   id="g218"
   style="fill:#f4e2ba">
    
    <polygon
   id="_48085304"
   points="293.941,2955.34 306.7,2974.54 306.7,2980.28 306.7,2984.48 298.066,2984.48 294.353,2979.55 292.844,2977.55 290.355,2958.31 293.941,2955.34 "
   style="fill:#f4e2ba;stroke:#8c8c60;stroke-width:1.70079005" />
    <polygon
   id="_48592160"
   points="315.958,2957.93 326.991,2969.36 327.262,2970.34 327.461,2971.05 334.33,2977.57 331.26,2986.78 330.013,2990.53 323.13,2989.03 311.408,2974.09 311.509,2961.76 315.958,2957.93 "
   style="fill:#f4e2ba;stroke:#8c8c60;stroke-width:1.70079005" />
    <polygon
   id="_79236936"
   points="301.712,2930.28 308.427,2935.23 308.926,2943.96 309.291,2950.35 302.383,2957.26 295.907,2950.49 293.276,2947.74 292.082,2937.14 301.712,2930.28 "
   style="fill:#f4e2ba;stroke:#8c8c60;stroke-width:1.70079005" />
    <polygon
   id="_79236832"
   points="330.073,3187.96 339.846,3188.42 340.63,3191.12 341.204,3193.09 333.48,3198.2 329.165,3201.65 327.412,3203.05 319.661,3199.08 330.073,3187.96 "
   style="fill:#f4e2ba;stroke:#8c8c60;stroke-width:1.70079005" />
    <polygon
   id="_78703104"
   points="360.725,3150.38 366.612,3156.02 366.648,3163.7 366.675,3169.32 363.7,3173.58 357.543,3173.03 355.042,3172.81 351.608,3162.79 356.398,3157.33 360.725,3150.38 "
   style="fill:#f4e2ba;stroke:#8c8c60;stroke-width:1.70079005" />
    <polygon
   id="_48616288"
   points="284.875,2997.25 289.799,3007.01 287.343,3012.46 285.546,3016.45 278.207,3010.83 279.17,3003.59 279.562,3000.64 284.875,2997.25 "
   style="fill:#f4e2ba;stroke:#8c8c60;stroke-width:1.70079005" />
    <polygon
   id="_48616128"
   points="300.848,3017.12 307.068,3026.02 305.858,3028.23 304.974,3029.84 295.908,3030.71 292.838,3026.71 291.59,3025.09 294.24,3017.93 300.848,3017.12 "
   style="fill:#f4e2ba;stroke:#8c8c60;stroke-width:1.70079005" />
    <polygon
   id="_46210920"
   points="317.685,3003.73 319.652,3017.74 317.8,3018.37 316.447,3018.83 313.608,3023.36 310.538,3019.06 309.291,3017.31 310.645,3004.53 317.685,3003.73 "
   style="fill:#f4e2ba;stroke:#8c8c60;stroke-width:1.70079005" />
    <polygon
   id="_48048408"
   points="352.654,2997.68 354.621,3004.35 351.263,3009.02 348.807,3012.44 346.235,3017.1 341.454,3017.25 339.511,3017.31 337.352,3015.15 337.412,3007.12 352.654,2997.68 "
   style="fill:#f4e2ba;stroke:#8c8c60;stroke-width:1.70079005" />
    <polygon
   id="_48084528"
   points="296.963,3060.75 302.751,3067.49 313.012,3067.21 320.515,3067 320.071,3074.18 319.334,3079.7 319.035,3081.94 313.34,3083.8 307.132,3086.44 287.273,3079.53 290.355,3061.56 296.963,3060.75 "
   style="fill:#f4e2ba;stroke:#8c8c60;stroke-width:1.70079005" />
    <polygon
   id="_48084440"
   points="350.064,3078.9 350.24,3086.07 349.204,3090.5 348.447,3093.75 347.881,3099.66 346.218,3102.43 345.542,3103.55 339.326,3107.86 326.291,3108.43 320.515,3101.13 328.286,3093.35 329.286,3091.41 339.57,3079.71 350.064,3078.9 "
   style="fill:#f4e2ba;stroke:#8c8c60;stroke-width:1.70079005" />
    <polygon
   id="_78490400"
   points="320.275,3047.79 319.22,3057.92 315.729,3061.92 313.176,3064.84 307.737,3063.63 304.544,3061.41 303.247,3060.52 306.515,3057.23 307.13,3054.9 312.804,3049.03 320.275,3047.79 "
   style="fill:#f4e2ba;stroke:#8c8c60;stroke-width:1.70079005" />
    <polygon
   id="_47716008"
   points="337.544,3048.66 348.309,3070.84 341.731,3074.36 336.921,3076.93 331.308,3072.61 331.658,3058 331.8,3052.06 337.544,3048.66 "
   style="fill:#f4e2ba;stroke:#8c8c60;stroke-width:1.70079005" />
    <polygon
   id="_46201040"
   points="391.077,3000.27 392.18,3005.65 402.02,3019.7 409.216,3029.98 407.241,3038.91 406.71,3045.07 406.494,3047.57 399.242,3054.79 389.652,3053.18 390.225,3046.71 392.182,3036.06 382.912,3028.43 374.912,3010.4 376.639,2997.87 381.015,2994.16 391.077,3000.27 "
   style="fill:#f4e2ba;stroke:#8c8c60;stroke-width:1.70079005" />
    <polygon
   id="_48951192"
   points="381.147,3077.6 391.253,3084.77 388.721,3088.46 386.87,3091.15 375.511,3094.05 368.814,3103.87 366.092,3107.86 358.238,3104.97 360.655,3088.24 363.255,3077.8 381.147,3077.6 "
   style="fill:#f4e2ba;stroke:#8c8c60;stroke-width:1.70079005" />
    <polygon
   id="_48174928"
   points="370.354,3027.92 371.458,3034.16 371.84,3037.34 372.12,3039.66 361.96,3041.94 355.513,3036.1 352.894,3033.73 354.001,3027.78 356.839,3023.54 370.354,3027.92 "
   style="fill:#f4e2ba;stroke:#8c8c60;stroke-width:1.70079005" />
    <polygon
   id="_79005312"
   points="402.478,3107.24 400.551,3112.62 386.584,3112.45 376.37,3112.31 373.175,3106.82 379.936,3100.31 382.683,3097.67 402.478,3107.24 "
   style="fill:#f4e2ba;stroke:#8c8c60;stroke-width:1.70079005" />
    <polygon
   id="_79005032"
   points="418.451,3082.61 413.071,3095.77 404.34,3096.84 397.956,3097.63 397.783,3087.38 408.534,3081.49 412.903,3079.09 418.451,3082.61 "
   style="fill:#f4e2ba;stroke:#8c8c60;stroke-width:1.70079005" />
    <polygon
   id="_79175632"
   points="476.557,3040.45 481.546,3048.42 461.597,3071.23 447.01,3087.91 437.532,3088.73 432.769,3083.33 430.833,3081.13 432.456,3072.06 421.355,3068.87 418.947,3059.65 426.418,3045.43 438.374,3048.42 448.795,3047.3 476.557,3040.45 "
   style="fill:#f4e2ba;stroke:#8c8c60;stroke-width:1.70079005" />
    <polygon
   id="_48634104"
   points="466.372,3090.39 458.089,3102.31 457.288,3101.94 456.703,3101.67 451.007,3108.31 445.52,3108.3 443.291,3108.3 438.538,3103.24 451.748,3087.38 460.823,3086.87 466.372,3090.39 "
   style="fill:#f4e2ba;stroke:#8c8c60;stroke-width:1.70079005" />
    <polygon
   id="_78199808"
   points="498.239,3169.71 494.694,3174.68 486.448,3173.02 480.418,3171.81 475.234,3160.7 478.487,3158.02 479.809,3156.94 490.612,3158.59 498.239,3169.71 "
   style="fill:#f4e2ba;stroke:#8c8c60;stroke-width:1.70079005" />
    <polygon
   id="_48743800"
   points="463.27,3164.95 461.883,3171.22 455.383,3171.06 450.63,3170.95 448.467,3160.27 451.436,3157.56 452.643,3156.45 453.518,3155.96 456.928,3153.05 463.845,3157.29 463.27,3164.95 "
   style="fill:#f4e2ba;stroke:#8c8c60;stroke-width:1.70079005" />
    <polygon
   id="_48808544"
   points="477.085,3193.47 464.877,3202.05 458.141,3199.13 453.216,3196.99 465.994,3183.72 474.29,3184.28 477.66,3184.51 477.085,3193.47 "
   style="fill:#f4e2ba;stroke:#8c8c60;stroke-width:1.70079005" />
    <polygon
   id="_79683584"
   points="545.727,3128.66 537.002,3130.18 535.736,3127.6 534.81,3125.71 542.408,3118.05 547.326,3119.84 549.325,3120.57 545.727,3128.66 "
   style="fill:#f4e2ba;stroke:#8c8c60;stroke-width:1.70079005" />
    <polygon
   id="_80435792"
   points="528.459,3153.72 524.449,3142.13 530.084,3137.45 534.205,3134.04 542.418,3146.49 537.913,3149.14 536.083,3150.22 528.459,3153.72 "
   style="fill:#f4e2ba;stroke:#8c8c60;stroke-width:1.70079005" />
    <polygon
   id="_80939688"
   points="543.473,3074.15 528.171,3095.51 533.118,3106.71 536.736,3114.9 521.456,3131.35 521.627,3138.24 521.697,3141.04 515.675,3149.44 503.153,3151.37 487.626,3145.06 477.636,3151.36 462.275,3150.43 454.146,3138.16 457.064,3123.9 474.025,3110.78 472.911,3104.15 467,3096.84 472.911,3091.62 472.971,3085.75 477.236,3081.48 486.309,3087.81 543.473,3074.15 "
   style="fill:#f4e2ba;stroke:#8c8c60;stroke-width:1.70079005" />
   </g>
   <g
   id="g247"
   style="fill:#f4e2ba">
    
    <polygon
   id="_80189136"
   points="718.691,1856.56 716.831,1859.91 709.492,1860.34 711.027,1852.04 718.691,1856.56 "
   style="fill:#f4e2ba;stroke:#8c8c60;stroke-width:1.70079005" />
   </g>
  </g>
  <g
   id="_47789136"
   transform="translate(86.62926,-27.84453)"
   style="fill:#f4e2ba">
   <path
   style="fill:#f4e2ba;stroke:#8c8c60;stroke-width:1.70079005"
   d="M 1143.9375 1899.0313 L 1109.8125 1910.5313 L 1060.5 1956.1875 L 1067.875 2031.0938 L 1059.6563 2036.0313 L 1043.6563 2081.3125 L 1036.6875 2107.0313 L 1047.1875 2121.3438 L 1050.5 2173.9375 L 1070.8125 2201.875 L 1058.7188 2209.9375 L 1068.2813 2219.4063 L 1060.3438 2232.8125 L 1031.25 2236.5938 L 1072.625 2288.3125 L 1084.8125 2285.3125 L 1102.4375 2312.1875 L 1107.2813 2340.625 L 1087.875 2361.4063 L 1087.9063 2369.8438 L 1110 2384 L 1120.75 2382.5938 L 1127.3438 2390.25 L 1116.9375 2397.4688 L 1133.3438 2415.5938 L 1118.8125 2420.7188 L 1110.2188 2457.1875 L 1092.7813 2448.3125 L 1068.5 2463.375 L 1054.8125 2491.3438 L 1076.7813 2531.625 L 1070.3125 2541.3438 L 1075.4375 2594.9063 L 1096.4375 2625.8438 L 1091.2813 2644.9688 L 1072.75 2639.0313 L 1070.125 2646.0313 L 1060.25 2672.5 L 1056.8125 2704.1875 L 1066.2188 2710.875 L 1066.9375 2723.375 L 1081.2188 2736.75 L 1089.7813 2738 L 1090.9375 2753.4063 L 1101.6563 2749.0938 L 1117.5938 2774.3438 L 1132.5625 2766.6563 L 1132.8125 2751.2188 L 1152.7813 2751.625 L 1152.8125 2778.1563 L 1180.5 2791.875 L 1196.5625 2786.4375 L 1217.8125 2781.3438 L 1210.875 2767.25 L 1216.9063 2755.5625 L 1199.2188 2736.6563 L 1181.1875 2739.2813 L 1162.5625 2728.125 L 1169 2718.2813 L 1184.1563 2719.5313 L 1187.8125 2712.625 L 1225.375 2712.8125 L 1249.0313 2726.9688 L 1270 2718.375 L 1302.75 2725.0938 L 1351.9063 2720.8125 L 1377 2689.8125 L 1384.5 2671.25 L 1398.5625 2681.9688 L 1435.5625 2681.75 L 1440.3438 2664.9688 L 1470.5625 2666.3125 L 1501 2656.5938 L 1519.8125 2625.375 L 1543.7813 2617.2813 L 1549.3438 2601.375 L 1549.8125 2601.1563 L 1638.625 2553.0938 L 1656.1875 2534.9063 L 1695.75 2465.625 L 1724.25 2421.9688 L 1743 2414.6563 L 1777.7813 2349.9688 L 1818.9375 2219.375 L 1806.9375 2189.0625 L 1772.2188 2160.8438 L 1760.7188 2121.3438 L 1736 2104.25 L 1704.5 2079.4375 L 1660.0938 2059.2813 L 1642.2188 2034.0313 L 1589.8438 1978.125 L 1565 1975.875 L 1551.5938 1990.4688 L 1530.9688 1938 L 1431.5625 1955.75 L 1364.75 1943.4063 L 1349.1875 1979.0625 L 1338.3438 2004.1563 L 1298.5625 1958.25 L 1237.4063 1919.125 L 1186.75 1915.25 L 1143.9375 1899.0313 z "
   transform="matrix(1.008269,0,0,1.008269,4.142,2.740807)"
   id="_79880920" />
   
   
  </g>
  <g
   id="_79512224"
   transform="translate(86.62916,-27.84458)"
   style="fill:#f4e2ba">
   <path
   style="fill:#f4e2ba;stroke:#8c8c60;stroke-width:1.70079005"
   d="M 1373.5,1132.1563 L 1374,1148.6563 L 1359.125,1154.5625 L 1354.2813,1172.7188 L 1366.8438,1199.6875 L 1385.125,1207.4063 L 1380.625,1238.4063 L 1371.3438,1239.875 L 1371.0313,1257.0625 L 1383.4375,1266.125 L 1383.7813,1282.75 L 1378.375,1287.1875 L 1360.4063,1282.0625 L 1342.2188,1290.875 L 1356.8438,1312.9063 L 1355.7188,1331.75 L 1326.1563,1344.6875 L 1259.2813,1334.0938 L 1245.5625,1300 L 1235.3438,1304.8438 L 1221.9063,1298.7188 L 1179.7813,1367.3438 L 1148.9063,1377.8438 L 1057.8125,1369.9688 L 1054.3438,1340.25 L 1008.2813,1369.2813 L 955.34375,1366.25 L 952.1875,1380.875 L 931.09375,1391.8438 L 916.875,1406.3438 C 917.48311,1406.9752 918.07799,1407.5944 918.6875,1408.2188 L 919.25,1421.1875 L 926.15625,1421.2188 L 930.75,1416.9688 L 949.28125,1449.9375 L 948.28125,1462.25 L 940.1875,1470.8438 L 940.1875,1485.3438 L 933.96875,1492.9688 L 939.34375,1502.9063 L 939.25,1533.7813 L 930.65625,1545.3125 L 935,1554.8125 L 947.3125,1561.9063 L 952.53125,1571.5 L 955.65625,1592.0938 L 965,1601.5938 L 964.21875,1607.2188 L 957.875,1606.9375 L 943.59375,1595.375 L 930.3125,1594.2188 L 927.96875,1600.8438 L 929.125,1609.3125 L 948.5,1628.75 L 952.375,1640.4063 L 947.28125,1645.0313 L 938.40625,1644.25 L 936.65625,1633.875 L 917.21875,1622.5938 L 899.0625,1622.4375 L 889.6875,1629.75 L 868.4375,1629.9688 L 861.3125,1636.2813 L 857.125,1643.875 L 844.875,1645.2813 L 839.8125,1671.5625 L 820.84375,1684.75 L 810.75,1727.4063 L 798.21875,1737.0938 L 797.34375,1744.0313 L 780.0625,1755.4688 L 760.03125,1776.9688 L 757.03125,1784.0625 L 749.40625,1796.5625 L 749.1875,1811.125 L 743.125,1814.4063 L 735.65625,1809.4688 L 726.78125,1822.9375 L 719.40625,1828.875 L 712.0625,1840.0625 L 769.5,1878.2813 L 778.84375,1915.5938 L 789.53125,1921.1563 L 794.5,1941.9375 L 809.125,1947.7188 L 825.4375,1996.75 L 886.78125,2071.4688 L 904.125,2069.1563 L 910.53125,2029.25 L 925.15625,2023.1875 L 971.4375,2054.9375 L 994.8125,2055 L 1004.2188,2062.8438 L 1013.0625,2081.5313 L 1043.6563,2081.3125 L 1059.6875,2036.0313 L 1067.875,2031.0938 L 1060.5,1956.125 L 1109.8125,1910.5313 L 1143.9375,1899.0625 L 1143.9375,1899.0313 L 1186.75,1915.25 L 1237.4063,1919.125 L 1298.5625,1958.25 L 1338.4063,2004.2188 L 1364.875,1943.1875 L 1431.6875,1955.5625 L 1531.0938,1937.8125 L 1551.7188,1990.2813 L 1565.125,1975.6875 L 1590.0938,1977.9063 L 1588.3125,1976.1563 L 1620.2813,1953.375 L 1654.125,1865.0313 L 1643.6563,1816.2188 L 1590,1779.4375 L 1574.6875,1738.2188 L 1574.5938,1715.6875 L 1585.5,1706.125 L 1586.1563,1686.25 L 1575.6563,1673.125 L 1580.0625,1657.3125 L 1530.0938,1647.0313 L 1515.375,1590.4375 L 1520.6875,1570.5313 L 1539.7813,1564.1875 L 1547.3125,1548.5938 L 1540.375,1539.375 L 1548.8438,1522.0313 L 1540.75,1512.6875 L 1514.875,1510.3125 L 1525.6875,1473.6563 L 1527.8125,1441.5313 L 1531.0625,1430.5938 L 1531.0938,1430.5938 L 1536.5938,1412 L 1526,1394.4688 L 1554,1375.8125 L 1573.0313,1374.0313 L 1564.375,1313.3438 L 1535.125,1229.8438 L 1510.5625,1193.6563 L 1492,1143.6875 L 1447.125,1149.4375 L 1373.5,1132.1563 z "
   transform="matrix(1.008269,0,0,1.008269,4.1421,2.740857)"
   id="_46639992"
   sodipodi:nodetypes="ccccccccccccccccccccccccccccccccccccccccccccccccccccccccccccccccccccccccccccccccccccccccccccccccccccccccccccccccccccccccccccccccccccccccccccccccc" />
   <g
   id="g257"
   style="fill:#f4e2ba">
    <g
   id="g259"
   style="fill:#f4e2ba">
     
     <polygon
   id="_48947512"
   points="855.412,1598.1 861.456,1586.86 894.698,1579.09 903.991,1590.04 913.147,1589.91 919.012,1586.9 924.154,1591.57 923.936,1597.58 911.681,1602.61 899.271,1594.38 889.351,1597.03 896.472,1619.7 887.759,1625.95 877.154,1619.38 865.773,1622.29 855.412,1598.1 "
   style="fill:#f4e2ba;stroke:#8c8c60;stroke-width:1.70079005" />
     <polygon
   id="_48947376"
   points="936.143,1572.61 944.863,1575.91 946.073,1584.27 939.165,1584.27 932.69,1578.65 936.143,1572.61 "
   style="fill:#f4e2ba;stroke:#8c8c60;stroke-width:1.70079005" />
    </g>
    <polygon
   id="_47663248"
   points="719.422,1845.65 721.234,1851.98 718.691,1856.56 711.027,1852.04 711.651,1848.67 719.422,1845.65 "
   style="fill:#f4e2ba;stroke:#8c8c60;stroke-width:1.70079005" />
   </g>
  </g>
  <g
   id="_46679128"
   transform="translate(80.66886,-39.76534)"
   style="fill:#f4e2ba">
   <polygon
   id="_48060920"
   points="267.606,2961.82 278.207,2977.57 271.3,2995.71 263.097,2993.98 261.43,2962.19 267.606,2961.82 "
   style="fill:#f4e2ba;stroke:#8c8c60;stroke-width:1.70079005" />
   <polygon
   id="_48044160"
   points="246.452,2978.24 253.967,2990.16 251.441,3001.76 243.67,3006.08 237.194,2991.39 238.549,2983.36 246.452,2978.24 "
   style="fill:#f4e2ba;stroke:#8c8c60;stroke-width:1.70079005" />
   <polygon
   id="_48051808"
   points="263.289,3000.27 269.941,3008.3 267.414,3022.93 262.234,3027.68 255.758,3023.79 252.795,3009.29 263.289,3000.27 "
   style="fill:#f4e2ba;stroke:#8c8c60;stroke-width:1.70079005" />
   <polygon
   id="_46723952"
   points="229.615,3015.82 239.289,3019.97 239.353,3029.41 231.582,3031.57 226.401,3025.95 229.615,3015.82 "
   style="fill:#f4e2ba;stroke:#8c8c60;stroke-width:1.70079005" />
   <polygon
   id="_78413760"
   points="208.892,3019.71 214.681,3015.65 219.925,3020.77 216.04,3030.71 208.71,3032.31 206.111,3028.98 206.111,3028.55 208.892,3019.71 "
   style="fill:#f4e2ba;stroke:#8c8c60;stroke-width:1.70079005" />
   <polygon
   id="_78193472"
   points="208.892,3044.34 217.703,3040.27 222.947,3047.55 224.674,3051.88 214.754,3060.83 209.996,3057.49 209.133,3053.17 208.892,3044.34 "
   style="fill:#f4e2ba;stroke:#8c8c60;stroke-width:1.70079005" />
   <polygon
   id="_79038752"
   points="195.078,3053.84 201.298,3054.96 203.52,3060.52 203.509,3064.8 204.825,3071.2 194.886,3071.32 191.864,3059.22 195.078,3053.84 "
   style="fill:#f4e2ba;stroke:#8c8c60;stroke-width:1.70079005" />
   <polygon
   id="_79229656"
   points="185.148,3071.12 194.822,3077 200.93,3090.33 199.624,3093.32 199.212,3098.41 187.547,3097.67 184.837,3085.63 179.344,3079.53 185.148,3071.12 "
   style="fill:#f4e2ba;stroke:#8c8c60;stroke-width:1.70079005" />
   <polygon
   id="_46783640"
   points="146.294,3009.78 162.496,3017.71 162.516,3022.81 140.058,3021.2 140.49,3014.29 146.294,3009.78 "
   style="fill:#f4e2ba;stroke:#8c8c60;stroke-width:1.70079005" />
   <polygon
   id="_79705736"
   points="155.791,3030.51 159.545,3036.75 156.366,3044.12 161.433,3051.86 153.43,3063.07 148.27,3062.99 149.128,3048.14 143.08,3041.94 149.987,3035.03 155.791,3030.51 "
   style="fill:#f4e2ba;stroke:#8c8c60;stroke-width:1.70079005" />
   <polygon
   id="_46693640"
   points="154.064,3107.41 172.928,3109.76 177.952,3115.84 171.362,3124.01 150.84,3130.04 135.75,3129.52 132.723,3124.61 146.534,3113.22 154.064,3107.41 "
   style="fill:#f4e2ba;stroke:#8c8c60;stroke-width:1.70079005" />
   <polygon
   id="_78310296"
   points="165.289,3090.13 171.045,3091.22 177.838,3097.65 178.038,3102.39 165.97,3101.01 160.785,3095.23 165.289,3090.13 "
   style="fill:#f4e2ba;stroke:#8c8c60;stroke-width:1.70079005" />
   <polygon
   id="_46664744"
   points="130.752,3071.12 134.505,3071.75 136.075,3079.98 130.349,3090.74 133.571,3098.07 122.799,3097.98 121.067,3082.71 130.752,3071.12 "
   style="fill:#f4e2ba;stroke:#8c8c60;stroke-width:1.70079005" />
   <polygon
   id="_48066376"
   points="80.2409,2984.72 96.0117,3000 110.57,3002.67 116.952,3013.4 125.338,3017.01 126.649,3027.42 136.604,3039.53 129.256,3061.04 111.723,3063.88 100.685,3051.67 93.9852,3051.01 88.2607,3060.92 98.2817,3068.5 89.8591,3088.41 91.9593,3091.84 100.252,3092.07 105.29,3088.76 121.464,3097.49 121.543,3104.16 118.155,3111.75 124.124,3117.93 123.087,3125.48 113.245,3132.28 110.76,3121.79 104.384,3123.01 99.7696,3112.49 85.9181,3102.6 73.7187,3105.29 72.0264,3094.84 67.309,3088.85 57.8616,3087.88 52.2062,3081.53 50.58,3069.36 40.8988,3058.24 34.306,3058.34 29.0027,3057.13 26.231,3066.71 18.7639,3067.12 13.2928,3054.88 16.2428,3041.93 10.9528,3036.26 14.2393,3027.6 33.4043,3019.43 42.1132,3022.18 51.423,3020.76 58.877,3011.23 67.1508,3016.5 64.8825,3031.32 71.0048,3032.88 76.235,3026.9 74.3131,3022.51 74.2697,3016.37 69.6974,3008.55 55.4414,3006.51 67.9612,2990.09 80.2409,2984.72 "
   style="fill:#f4e2ba;stroke:#8c8c60;stroke-width:1.70079005" />
   <polygon
   id="_46679168"
   points="229.615,3142.84 233.643,3145.65 241.3,3149.5 239.235,3152.91 237.465,3158.34 231.583,3158.17 226.39,3166.33 213.459,3156.74 216.045,3149.24 229.615,3142.84 "
   style="fill:#f4e2ba;stroke:#8c8c60;stroke-width:1.70079005" />
  </g>
  
  
  
  
  
  
  
  
  
  
  
  
  
  
  
  
  
  
  
  
 </g>
</svg>